<svg xmlns="http://www.w3.org/2000/svg" xmlns:xlink="http://www.w3.org/1999/xlink" width="10" height="10" viewBox="0 0 10 10"><defs><clipPath id="a"><rect width="10" height="10" fill="none"/></clipPath></defs><g clip-path="url(#a)"><path d="M5,10A5.006,5.006,0,1,1,8.534,8.534,5,5,0,0,1,5,10ZM5,.909a4.1,4.1,0,1,0,2.891,1.2A4.091,4.091,0,0,0,5,.909Z"/><path d="M235.152,98.327a.455.455,0,0,1-.321-.133l-1.364-1.364a.454.454,0,0,1-.133-.321V93.782a.455.455,0,1,1,.909,0v2.539l1.23,1.23a.455.455,0,0,1-.321.776Z" transform="translate(-228.789 -91.509)"/></g></svg>